<svg xmlns="http://www.w3.org/2000/svg" viewBox="0 0 107.97 121.5"><title>C++ logo</title><path d="M564.61,542.38a9.57,9.57,0,0,0,1.37-4.61V486.23a9.56,9.56,0,0,0-1.37-4.61L512,512Z" transform="translate(-458.02 -451.25)" style="fill:#00599c"/><path d="M516.68,571.64l44.63-25.77a9.56,9.56,0,0,0,3.3-3.49L512,512l-52.61,30.38a9.57,9.57,0,0,0,3.3,3.49l44.63,25.77A10.37,10.37,0,0,0,516.68,571.64Z" transform="translate(-458.02 -451.25)" style="fill:#004482"/><path d="M564.61,481.62a9.57,9.57,0,0,0-3.3-3.49l-44.63-25.77a10.37,10.37,0,0,0-9.35,0l-44.63,25.77a10.37,10.37,0,0,0-4.68,8.1v51.54a9.56,9.56,0,0,0,1.37,4.61L512,512Z" transform="translate(-458.02 -451.25)" style="fill:#659ad2"/><path d="M512,548a36,36,0,1,1,31.17-54l-15.58,9a18,18,0,1,0,0,18l15.58,9A36.12,36.12,0,0,1,512,548Z" transform="translate(-458.02 -451.25)" style="fill:#fff"/><polygon points="89.97 58.75 85.97 58.75 85.97 54.75 81.98 54.75 81.98 58.75 77.98 58.75 77.98 62.75 81.98 62.75 81.98 66.75 85.97 66.75 85.97 62.75 89.97 62.75 89.97 58.75" style="fill:#fff"/><polygon points="104.97 58.75 100.97 58.75 100.97 54.75 96.97 54.75 96.97 58.75 92.97 58.75 92.97 62.75 96.97 62.75 96.97 66.75 100.97 66.75 100.97 62.75 104.97 62.75 104.97 58.75" style="fill:#fff"/></svg>