<?xml version="1.0" encoding="UTF-8"?><svg id="uuid-abbdadf3-6116-462b-821c-53bb3c57b8fb" xmlns="http://www.w3.org/2000/svg" viewBox="0 0 389.35 265.13">
<title>MySQL logo - Brandlogos.net</title><path d="M93.61,241.53h-15.02c-.53-25.42-1.99-49.33-4.39-71.73h-.13l-22.87,71.73h-11.44l-22.73-71.73h-.13c-1.69,21.51-2.75,45.41-3.19,71.73H0c.89-32,3.1-62,6.65-90h18.62l21.67,66.13h.13l21.81-66.13h17.82c3.9,32.79,6.2,62.8,6.91,90" style="fill:#00758f;"/><path d="M158.78,175.13c-6.12,33.28-14.19,57.47-24.2,72.56-7.8,11.63-16.35,17.44-25.66,17.44-2.48,0-5.54-.75-9.17-2.24v-8.02c1.77.26,3.86.4,6.25.4,4.34,0,7.84-1.2,10.51-3.61,3.19-2.93,4.78-6.22,4.78-9.86,0-2.49-1.24-7.6-3.72-15.33l-16.49-51.33h14.76l11.83,38.39c2.66,8.72,3.77,14.8,3.32,18.27,6.47-17.33,10.99-36.22,13.57-56.66h14.23" style="fill:#00758f;"/><path d="M224.58,216.58c0,7.63-2.8,13.9-8.37,18.8-5.58,4.88-13.08,7.33-22.46,7.33-8.78,0-17.29-2.82-25.53-8.4l3.86-7.73c7.09,3.55,13.51,5.33,19.27,5.33,5.41,0,9.64-1.21,12.7-3.59,3.05-2.4,4.88-5.75,4.88-9.99,0-5.34-3.72-9.91-10.54-13.74-6.3-3.46-18.88-10.7-18.88-10.7-6.82-4.99-10.23-10.34-10.23-19.15,0-7.29,2.55-13.18,7.64-17.67,5.1-4.49,11.69-6.74,19.75-6.74s15.91,2.23,22.73,6.67l-3.47,7.72c-5.84-2.48-11.6-3.73-17.27-3.73-4.61,0-8.16,1.11-10.63,3.34-2.49,2.21-4.03,5.06-4.03,8.53,0,5.33,3.8,9.95,10.81,13.86,6.37,3.47,19.26,10.84,19.26,10.84,7.01,4.98,10.51,10.28,10.51,19.02" style="fill:#f29111;"/><path d="M251.44,223.53c-3.64-5.87-5.46-15.28-5.46-28.26,0-22.66,6.87-34,20.61-34,7.18,0,12.45,2.71,15.83,8.13,3.63,5.87,5.45,15.2,5.45,28,0,22.84-6.87,34.27-20.61,34.27-7.18,0-12.45-2.71-15.82-8.14M304.89,243.7l-16.5-8.16c1.47-1.21,2.86-2.51,4.13-4.02,7-8.26,10.51-20.48,10.51-36.66,0-29.77-11.66-44.67-34.97-44.67-11.44,0-20.35,3.78-26.73,11.34-7.01,8.27-10.51,20.44-10.51,36.53s3.1,27.42,9.31,34.8c5.65,6.66,14.2,10,25.65,10,4.27,0,8.19-.53,11.75-1.58l21.48,12.54,5.86-10.12" style="fill:#f29111;"/><path d="M358.75,241.53h-42.68v-90h14.36v78.93h28.32v11.07" style="fill:#f29111;"/><path d="M368.99,241.52h2.38v-9.16h3.11v-1.87h-8.73v1.87h3.23v9.16h0ZM387.1,241.52h2.24v-11.03h-3.37l-2.75,7.52-2.99-7.52h-3.25v11.03h2.12v-8.39h.12l3.13,8.39h1.62l3.13-8.39v8.39" style="fill:#f29111;"/><path d="M376.77,121.39c-8.68-.22-15.4.65-21.04,3.04-1.63.65-4.23.65-4.45,2.72.87.87.98,2.28,1.74,3.48,1.3,2.17,3.57,5.11,5.64,6.63,2.28,1.74,4.56,3.47,6.94,5,4.23,2.62,9,4.14,13.12,6.75,2.39,1.52,4.77,3.48,7.16,5.11,1.19.87,1.94,2.29,3.47,2.82v-.33c-.76-.98-.98-2.39-1.73-3.48-1.08-1.08-2.17-2.06-3.26-3.15-3.15-4.24-7.06-7.93-11.28-10.98-3.47-2.4-11.07-5.66-12.47-9.67,0,0-.11-.12-.22-.22,2.39-.22,5.21-1.09,7.49-1.75,3.68-.98,7.04-.76,10.84-1.73,1.74-.44,3.47-.99,5.22-1.52v-.99c-1.96-1.95-3.37-4.57-5.43-6.41-5.53-4.78-11.61-9.46-17.9-13.38-3.37-2.18-7.7-3.58-11.28-5.44-1.3-.65-3.46-.98-4.22-2.07-1.95-2.39-3.04-5.54-4.45-8.37-3.14-5.97-6.18-12.6-8.89-18.92-1.95-4.24-3.14-8.48-5.53-12.39-11.18-18.49-23.32-29.68-41.97-40.67-4.01-2.29-8.78-3.26-13.88-4.46-2.72-.11-5.42-.33-8.14-.43-1.74-.76-3.48-2.83-4.99-3.81-6.18-3.91-22.12-12.39-26.68-1.19-2.93,7.07,4.34,14.03,6.83,17.62,1.84,2.5,4.23,5.33,5.53,8.15.76,1.85.98,3.81,1.74,5.76,1.73,4.78,3.36,10.11,5.64,14.57,1.19,2.28,2.49,4.68,4.01,6.74.88,1.2,2.39,1.74,2.72,3.7-1.51,2.17-1.63,5.43-2.5,8.15-3.9,12.29-2.39,27.51,3.15,36.53,1.73,2.72,5.86,8.7,11.39,6.41,4.88-1.95,3.8-8.15,5.2-13.59.32-1.31.11-2.18.76-3.04v.22c1.52,3.04,3.04,5.97,4.45,9.02,3.37,5.32,9.22,10.87,14.1,14.56,2.6,1.96,4.66,5.33,7.91,6.53v-.33h-.21c-.65-.98-1.63-1.41-2.5-2.17-1.95-1.96-4.12-4.35-5.64-6.53-4.55-6.09-8.57-12.83-12.14-19.79-1.74-3.38-3.26-7.07-4.67-10.44-.65-1.3-.65-3.26-1.74-3.91-1.63,2.39-4.01,4.46-5.2,7.39-2.06,4.68-2.28,10.44-3.04,16.43-.43.11-.21,0-.43.22-3.47-.87-4.66-4.46-5.96-7.49-3.25-7.73-3.8-20.13-.98-29.04.76-2.28,4.02-9.46,2.71-11.63-.66-2.07-2.82-3.26-4.01-4.9-1.41-2.07-2.93-4.67-3.9-6.96-2.6-6.09-3.91-12.83-6.72-18.92-1.3-2.83-3.58-5.77-5.42-8.37-2.06-2.94-4.34-5-5.97-8.48-.54-1.2-1.3-3.16-.43-4.46.21-.87.65-1.2,1.52-1.42,1.4-1.2,5.42.32,6.83.98,4.02,1.63,7.38,3.16,10.74,5.44,1.52,1.09,3.15,3.16,5.1,3.7h2.28c3.47.76,7.38.21,10.63,1.19,5.74,1.85,10.95,4.57,15.62,7.5,14.2,9.03,25.92,21.86,33.83,37.19,1.3,2.5,1.85,4.78,3.04,7.39,2.28,5.34,5.1,10.78,7.37,15.99,2.28,5.11,4.45,10.33,7.71,14.57,1.62,2.28,8.13,3.48,11.06,4.67,2.16.98,5.53,1.85,7.48,3.04,3.69,2.28,7.37,4.89,10.84,7.4,1.73,1.31,7.16,4.02,7.48,6.2" style="fill:#00758f;"/><path d="M266.15,26.88c-1.84,0-3.14.22-4.45.55v.22h.21c.88,1.74,2.4,2.94,3.47,4.46.87,1.74,1.63,3.47,2.5,5.22.11-.11.21-.22.21-.22,1.53-1.08,2.29-2.82,2.29-5.43-.66-.77-.76-1.52-1.3-2.29-.65-1.08-2.06-1.63-2.93-2.5" style="fill:#00758f;"/></svg>