<?xml version="1.0" encoding="UTF-8"?><svg id="Layer_1" xmlns="http://www.w3.org/2000/svg" xmlns:xlink="http://www.w3.org/1999/xlink" viewBox="0 0 267.2 78.9"><defs><style>.cls-1{mask:url(#mask);}.cls-2{fill:url(#linear-gradient-3);}.cls-3{fill:url(#linear-gradient-2);}.cls-4{fill:url(#linear-gradient);}.cls-5,.cls-6{fill:#5fa04e;}.cls-7{fill:#fff;}.cls-6,.cls-8{fill-rule:evenodd;}.cls-8{fill:#333;}</style><mask id="mask" x="0" y="0" width="267.2" height="79.38" maskUnits="userSpaceOnUse"><g id="mask0_1804_2337"><path class="cls-7" d="M267,0H0v79.38h267V0Z"/></g></mask><linearGradient id="linear-gradient" x1="83.09" y1="18.12" x2="65.4" y2="-17.75" gradientTransform="translate(0 55.53) scale(1 -1)" gradientUnits="userSpaceOnUse"><stop offset="0" stop-color="#3f873f"/><stop offset=".33" stop-color="#3f8b3d"/><stop offset=".64" stop-color="#3e9638"/><stop offset=".93" stop-color="#3da92e"/><stop offset="1" stop-color="#3dae2b"/></linearGradient><linearGradient id="linear-gradient-2" x1="72.16" y1="-.63" x2="121.53" y2="35.62" gradientTransform="translate(0 55.53) scale(1 -1)" gradientUnits="userSpaceOnUse"><stop offset=".14" stop-color="#3f873f"/><stop offset=".4" stop-color="#52a044"/><stop offset=".71" stop-color="#64b749"/><stop offset=".91" stop-color="#6abf4b"/></linearGradient><linearGradient id="linear-gradient-3" x1="52.72" y1="1.97" x2="97.55" y2="1.97" gradientTransform="translate(0 55.53) scale(1 -1)" gradientUnits="userSpaceOnUse"><stop offset=".09" stop-color="#6abf4b"/><stop offset=".29" stop-color="#64b749"/><stop offset=".6" stop-color="#52a044"/><stop offset=".86" stop-color="#3f873f"/></linearGradient></defs><g class="cls-1"><path class="cls-5" d="M234.98,78.75c-.69,0-1.34-.19-1.93-.51l-6.12-3.66c-.92-.51-.46-.69-.18-.79,1.24-.42,1.47-.51,2.76-1.25.14-.09.32-.05.46.05l4.69,2.82c.18.09.41.09.55,0l18.36-10.7c.18-.09.28-.28.28-.51v-21.35c0-.23-.09-.42-.28-.51l-18.36-10.65c-.18-.09-.41-.09-.55,0l-18.36,10.65c-.18.09-.28.32-.28.51v21.35c0,.19.09.42.28.51l5.02,2.92c2.72,1.39,4.42-.23,4.42-1.85v-21.07c0-.28.23-.56.55-.56h2.35c.28,0,.55.23.55.56v21.07c0,3.66-1.98,5.79-5.43,5.79-1.06,0-1.89,0-4.23-1.16l-4.83-2.78c-1.2-.69-1.93-1.99-1.93-3.38v-21.35c0-1.39.74-2.69,1.93-3.38l18.36-10.7c1.15-.65,2.71-.65,3.86,0l18.36,10.7c1.2.69,1.93,1.99,1.93,3.38v21.35c0,1.39-.74,2.69-1.93,3.38l-18.36,10.7c-.55.23-1.24.42-1.93.42Z"/><path class="cls-5" d="M240.69,64.07c-8.06,0-9.71-3.7-9.71-6.85,0-.28.23-.56.55-.56h2.39c.28,0,.51.19.51.46.37,2.45,1.43,3.66,6.31,3.66,3.87,0,5.52-.88,5.52-2.96,0-1.2-.46-2.08-6.49-2.69-5.02-.51-8.15-1.62-8.15-5.65,0-3.75,3.13-5.97,8.38-5.97,5.89,0,8.79,2.04,9.16,6.48,0,.14-.05.28-.14.42-.09.09-.23.19-.37.19h-2.44c-.23,0-.46-.19-.51-.42-.55-2.55-1.98-3.38-5.75-3.38-4.23,0-4.74,1.48-4.74,2.59,0,1.34.6,1.76,6.3,2.5,5.66.74,8.33,1.81,8.33,5.79s-3.36,6.39-9.16,6.39Z"/><path class="cls-5" d="M267.2,41.66c0,1.94-1.61,3.57-3.55,3.57s-3.54-1.57-3.54-3.57,1.66-3.57,3.54-3.57,3.55,1.57,3.55,3.57ZM260.66,41.66c0,1.67,1.33,3.01,2.94,3.01s2.99-1.39,2.99-3.01-1.34-2.96-2.99-2.96c-1.56,0-2.94,1.3-2.94,2.96ZM262.32,39.67h1.38c.46,0,1.38,0,1.38,1.07,0,.74-.46.88-.74.97.55.05.6.42.65.93.05.32.09.88.18,1.07h-.83c0-.19-.14-1.2-.14-1.25-.05-.23-.14-.32-.41-.32h-.69v1.62h-.78v-4.08ZM263.06,41.43h.6c.51,0,.6-.37.6-.56,0-.56-.37-.56-.6-.56h-.64v1.11h.05Z"/><path class="cls-8" d="M43.67,41.95c0-.83-.46-1.62-1.2-2.04l-19.47-11.35c-.32-.19-.69-.28-1.06-.32h-.18c-.37,0-.74.14-1.06.32L1.2,39.87c-.74.42-1.2,1.2-1.2,2.08l.05,30.38c0,.42.23.83.6,1.02.37.23.83.23,1.15,0l11.6-6.67c.74-.42,1.2-1.2,1.2-2.04v-14.22c0-.83.46-1.62,1.2-2.04l4.92-2.87c.37-.23.78-.32,1.2-.32s.83.09,1.15.32l4.92,2.87c.74.42,1.2,1.2,1.2,2.04v14.22c0,.83.46,1.62,1.2,2.04l11.51,6.67c.37.23.83.23,1.2,0,.37-.19.6-.6.6-1.02v-30.38Z"/><path class="cls-8" d="M137.46.14c-.37-.19-.83-.19-1.15,0-.37.23-.6.6-.6,1.02v30.1c0,.28-.14.56-.42.74-.28.14-.55.14-.83,0l-4.88-2.82c-.74-.42-1.61-.42-2.35,0l-19.51,11.35c-.74.42-1.2,1.2-1.2,2.04v22.64c0,.83.46,1.62,1.2,2.04l19.51,11.35c.74.42,1.61.42,2.35,0l19.51-11.35c.74-.42,1.2-1.2,1.2-2.04V8.75c0-.88-.46-1.67-1.2-2.08L137.46.14ZM135.67,57.75c0,.23-.09.42-.28.51l-6.67,3.89c-.18.09-.41.09-.6,0l-6.67-3.89c-.18-.09-.28-.32-.28-.51v-7.78c0-.23.09-.42.28-.51l6.67-3.89c.18-.09.41-.09.6,0l6.67,3.89c.18.09.28.32.28.51v7.78Z"/><path class="cls-8" d="M202.4,49.78c.74-.42,1.15-1.2,1.15-2.04v-5.51c0-.83-.46-1.62-1.15-2.04l-19.38-11.3c-.74-.42-1.61-.42-2.35,0l-19.51,11.34c-.74.42-1.2,1.2-1.2,2.04v22.64c0,.83.46,1.62,1.2,2.04l19.37,11.11c.74.42,1.61.42,2.3,0l11.74-6.58c.37-.19.6-.6.6-1.02s-.23-.83-.6-1.02l-19.6-11.35c-.37-.23-.6-.6-.6-1.02v-7.08c0-.42.23-.83.6-1.02l6.12-3.52c.37-.23.83-.23,1.2,0l6.12,3.52c.37.23.6.6.6,1.02v5.56c0,.42.23.83.6,1.02.37.23.83.23,1.2,0l11.6-6.81Z"/><path class="cls-6" d="M181.55,48.72c.14-.09.32-.09.46,0l3.73,2.18c.14.09.23.23.23.42v4.35c0,.19-.09.32-.23.42l-3.73,2.18c-.14.09-.32.09-.46,0l-3.73-2.18c-.14-.09-.23-.23-.23-.42v-4.35c0-.19.09-.32.23-.42l3.73-2.18Z"/><path class="cls-4" d="M76.3,28.99c-.74-.42-1.61-.42-2.35,0l-19.37,11.25c-.74.42-1.15,1.2-1.15,2.04v22.55c0,.83.46,1.62,1.15,2.04l19.37,11.25c.74.42,1.61.42,2.35,0l19.37-11.25c.74-.42,1.15-1.2,1.15-2.04v-22.55c0-.83-.46-1.62-1.15-2.04l-19.37-11.25Z"/><path class="cls-3" d="M95.72,40.24l-19.47-11.25c-.18-.09-.41-.19-.6-.23l-21.81,37.56c.18.23.41.42.64.56l19.47,11.25c.55.32,1.2.42,1.79.23l20.48-37.69c-.14-.19-.32-.32-.51-.42Z"/><path class="cls-2" d="M95.72,66.87c.55-.32.97-.88,1.15-1.48l-21.31-36.68c-.55-.09-1.15-.05-1.66.28l-19.33,11.21,20.85,38.25c.28-.05.6-.14.87-.28l19.42-11.3Z"/></g></svg>