<?xml version="1.0" encoding="UTF-8"?><svg id="uuid-db47d267-c47d-47c9-944b-f4aa8e2a4a81" xmlns="http://www.w3.org/2000/svg" viewBox="0 0 292.77 78.96">
<title>Spring Boot logo - Brandlogos.net</title><path d="M71.74,56.9c-9.69,12.94-30.52,8.56-43.8,9.2,0,0-2.37.16-4.72.49,0,0,.9-.41,2.04-.82,9.36-3.25,13.76-3.92,19.46-6.83,10.67-5.46,21.32-17.43,23.46-29.8-4.07,11.88-16.45,22.14-27.69,26.3-7.73,2.86-21.65,5.62-21.65,5.62l-.57-.33c-9.44-4.64-9.77-25.16,7.5-31.76,7.58-2.94,14.74-1.31,22.97-3.25,8.71-2.04,18.82-8.56,22.87-17.09,4.52,13.76,10.06,35.09.14,48.28ZM18.33,68.7c-1.14,1.47-3.25,1.63-4.72.49-1.47-1.14-1.63-3.25-.49-4.72,1.14-1.47,3.25-1.63,4.72-.49,1.39,1.14,1.63,3.25.49,4.72ZM71.97,4.54c-1.14,2.76-2.6,5.21-4.23,7.4C60.58,4.64,50.55,0,39.49,0,17.76,0,0,17.66,0,39.47c0,11.4,4.88,21.66,12.61,28.9l1.47,1.31c6.83,5.78,15.72,9.28,25.39,9.28,20.75,0,37.85-16.19,39.32-36.63,1.17-9.93-1.84-22.63-6.81-37.79Z" style="fill:#6cb52d;"/><path d="M101.21,54.94c-.98-.49-1.63-1.63-1.63-3.02,0-1.96,1.55-3.58,3.58-3.58.72,0,1.39.23,1.88.49,3.66,2.45,7.58,3.66,10.98,3.66,3.74,0,5.95-1.63,5.95-4.15v-.16c0-3.02-4.07-3.99-8.56-5.36-5.62-1.63-11.96-3.92-11.96-11.24v-.16c0-7.24,6.03-11.65,13.59-11.65,4.07,0,8.3,1.14,12.04,3.09,1.21.65,2.11,1.78,2.11,3.33,0,2.04-1.63,3.58-3.66,3.58-.72,0-1.14-.16-1.7-.41-3.09-1.63-6.27-2.6-8.95-2.6-3.43,0-5.36,1.63-5.36,3.74v.16c0,2.86,4.15,3.99,8.63,5.46,5.62,1.7,11.88,4.31,11.88,11.16v.16c0,8.07-6.27,12.04-14.16,12.04-4.99.02-10.3-1.53-14.68-4.54Z" style="fill:#6cb52d;"/><path d="M163.98,39.73v-.16c0-7.4-4.97-12.22-10.91-12.22s-11.16,4.97-11.16,12.22v.16c0,7.32,5.21,12.22,11.16,12.22,5.93.08,10.91-4.66,10.91-12.22ZM133.28,24.26c0-2.45,1.88-4.41,4.31-4.41s4.41,1.96,4.41,4.41v2.6c2.86-3.99,6.83-7.17,13.02-7.17,8.95,0,17.74,7.09,17.74,19.87v.16c0,12.71-8.71,19.87-17.74,19.87-6.34,0-10.34-3.17-13.02-6.75v13.51c0,2.45-1.96,4.41-4.41,4.41s-4.31-1.88-4.31-4.41V24.26Z" style="fill:#6cb52d;"/><path d="M176.18,24.26c0-2.45,1.88-4.41,4.31-4.41s4.41,1.96,4.41,4.41v2.11c.41-3.25,5.78-6.52,9.61-6.52,2.76,0,4.31,1.78,4.31,4.31,0,2.27-1.55,3.82-3.5,4.23-6.27,1.06-10.49,6.52-10.49,14.08v12.61c0,2.37-1.96,4.31-4.41,4.31s-4.31-1.88-4.31-4.31v-30.82h.08Z" style="fill:#6cb52d;"/><path d="M202.31,24.34c0-2.45,1.88-4.41,4.31-4.41s4.41,1.96,4.41,4.41v30.86c0,2.45-1.96,4.31-4.41,4.31s-4.31-1.88-4.31-4.31v-30.86Z" style="fill:#6cb52d;"/><path d="M215.51,24.34c0-2.45,1.88-4.41,4.31-4.41s4.41,1.96,4.41,4.41v1.78c2.45-3.58,6.03-6.27,11.96-6.27,8.63,0,13.59,5.78,13.59,14.65v20.6c0,2.45-1.88,4.31-4.31,4.31s-4.41-1.88-4.41-4.31v-17.92c0-5.95-2.94-9.36-8.22-9.36s-8.63,3.58-8.63,9.52v17.84c0,2.45-1.96,4.31-4.41,4.31s-4.31-1.88-4.31-4.31l.02-30.84Z" style="fill:#6cb52d;"/><path d="M272.98,51.92c-6.03,0-10.91-4.72-10.91-12.3v-.16c0-7.4,4.97-12.22,10.91-12.22s11.16,4.97,11.16,12.22v.16c.08,7.34-5.13,12.3-11.16,12.3ZM288.37,19.78c-2.45,0-4.41,1.96-4.41,4.41v2.6c-2.86-3.99-6.83-7.17-13.02-7.17-8.95,0-17.74,7.09-17.74,19.87v.16c0,12.71,8.71,19.87,17.74,19.87,6.34,0,10.34-3.17,13.02-6.68-.41,6.91-4.64,10.49-12.04,10.49-4.41,0-8.22-1.06-11.73-3.02-.41-.23-.98-.33-1.55-.33-2.04,0-3.74,1.63-3.74,3.58,0,1.7.98,2.94,2.45,3.5,4.64,2.27,9.44,3.43,14.82,3.43,6.91,0,12.3-1.63,15.72-5.13,3.17-3.17,4.88-7.97,4.88-14.41v-26.71c0-2.53-1.96-4.48-4.41-4.48Z" style="fill:#6cb52d;"/><path d="M211.11,9.36c0,2.45-1.96,4.41-4.41,4.41s-4.41-1.96-4.41-4.41,1.96-4.41,4.41-4.41c2.37-.08,4.41,1.88,4.41,4.41Z" style="fill:#6cb52d;"/><path d="M18.33,68.7c-1.14,1.47-3.25,1.63-4.72.49-1.47-1.14-1.63-3.25-.49-4.72,1.14-1.47,3.25-1.63,4.72-.49,1.39,1.14,1.63,3.25.49,4.72Z" style="fill:#6cb52d;"/><path d="M71.74,56.9c-9.69,12.94-30.52,8.56-43.8,9.2,0,0-2.37.16-4.72.49,0,0,.9-.41,2.04-.82,9.36-3.25,13.76-3.92,19.46-6.83,10.67-5.46,21.32-17.43,23.46-29.8-4.07,11.88-16.45,22.14-27.69,26.3-7.73,2.86-21.65,5.62-21.65,5.62l-.57-.33c-9.44-4.64-9.77-25.16,7.5-31.76,7.58-2.94,14.74-1.31,22.97-3.25,8.71-2.04,18.82-8.56,22.87-17.09,4.52,13.76,10.06,35.09.14,48.28Z" style="fill:#fff;"/></svg>